<svg width="24" height="37" viewBox="0 0 24 37" fill="none" xmlns="http://www.w3.org/2000/svg">
<mask id="mask0_338_376" style="mask-type:alpha" maskUnits="userSpaceOnUse" x="0" y="0" width="24" height="38">
<path d="M10.3732 18.6376L14.2396 18.6376C14.2396 18.6376 14.4869 21.7566 14.5256 22.339C14.5256 22.339 13.8367 22.351 13.6686 22.349C13.3729 27.0186 13.0889 31.76 12.7855 36.4296H11.2396C10.9401 31.764 10.8531 26.9926 10.5613 22.339H9.46859C9.10162 21.9252 10.3732 18.6376 10.3732 18.6376Z" fill="#221F20"/>
<path d="M14.3997 12.2794C13.0119 11.9313 11.5748 11.9011 10.1761 12.1908L9.86997 12.2387C9.86997 12.2387 9.76648 11.1145 9.29432 10.4888C9.20161 10.3546 8.80707 9.65945 8.80707 9.65945C9.61125 8.77972 10.4629 8.50165 11.6487 8.40337C12.9099 8.2979 14.4514 8.58076 15.3785 9.68821C15.0688 10.0262 14.8227 10.4295 14.6547 10.8744C14.4866 11.3193 14.3999 11.7969 14.3997 12.2794ZM12.6145 11.7809V8.63829H11.5753V11.7809H12.6145Z" fill="#221F20"/>
<path d="M14.1084 13.4919C13.7248 13.4584 13.3395 13.4431 12.954 13.4461C12.3994 13.4461 10.2281 13.5099 10.2281 13.5099C10.1389 13.3682 10.0634 13.2201 10.0026 13.0671C9.81096 12.6681 9.8042 11.7605 9.8042 11.7605C9.8042 11.7605 10.7805 11.6488 11.1435 11.6229C12.2854 11.5395 13.4346 11.6561 14.5255 11.966L14.1084 13.4919Z" fill="#221F20"/>
<path d="M17.1585 34.3471V36.7208L12.7368 36.1423C12.793 35.3444 12.8493 34.5805 12.9076 33.7886L17.1585 34.3471Z" fill="#221F20"/>
<path d="M11.1265 33.8286C11.1816 34.6045 11.2366 35.3804 11.2937 36.1703L7.16127 36.7209C7.16127 36.657 7.14496 36.6112 7.14496 36.5633C7.14496 35.8791 7.14496 35.1929 7.14496 34.5088C7.14496 34.3951 7.17758 34.3412 7.32232 34.3213C8.56389 34.1597 9.80341 33.9921 11.045 33.8266C11.0722 33.8259 11.0994 33.8265 11.1265 33.8286Z" fill="#221F20"/>
<path d="M8.67512 17.0748C8.67512 15.6069 8.67512 14.139 8.67512 12.6711C8.67512 12.393 8.59396 12.3219 8.28865 12.3435V17.1869L8.08382 17.2365C8.08382 17.1697 8.07416 17.1179 8.07416 17.0683V11.9167C8.06776 11.86 8.07579 11.8025 8.09735 11.7507C8.11413 11.7285 8.13533 11.7111 8.15924 11.6998C8.18316 11.6884 8.20914 11.6835 8.23507 11.6854C8.261 11.6873 8.28618 11.6959 8.30857 11.7106C8.33097 11.7253 8.34996 11.7457 8.36402 11.7701C8.98237 12.7027 9.67458 13.2394 10.2904 14.1749L10.4387 14.3279L10.493 18.9162C10.493 18.9874 8.70218 21.3023 8.70218 21.3023C8.70218 21.3023 8.67512 17.1459 8.67512 17.0748Z" fill="#221F20"/>
<path d="M17.4814 35.564C17.4814 35.9629 17.4814 36.3739 17.4814 36.7788C17.4814 36.8865 17.4814 36.9962 17.321 37.0002C17.1607 37.0042 17.1394 36.8905 17.1394 36.7748C17.1394 35.9769 17.1394 35.1691 17.1394 34.3652C17.1394 34.2535 17.1394 34.1358 17.3133 34.1358C17.4872 34.1358 17.4814 34.2555 17.4814 34.3692C17.4814 34.7681 17.4814 35.1671 17.4814 35.564Z" fill="#221F20"/>
<path d="M6.98249 35.566C6.98249 35.1551 6.98249 34.7462 6.98249 34.3353C6.98249 34.2315 6.99602 34.1358 7.13901 34.1358C7.28201 34.1358 7.30713 34.2315 7.30713 34.3353V36.7788C7.30713 36.8865 7.30713 36.9942 7.14288 36.9922C6.97863 36.9902 6.98249 36.8825 6.98249 36.7748C6.98442 36.3738 6.98249 35.9709 6.98249 35.566Z" fill="#221F20"/>
<path d="M12.4124 16.8637C12.411 16.9571 12.375 17.0463 12.3117 17.1131C12.2484 17.1799 12.1628 17.2191 12.0723 17.2227C12.0032 17.2243 11.9353 17.2046 11.877 17.1661C11.8188 17.1276 11.7731 17.0721 11.7455 17.0067C11.718 16.9412 11.71 16.8688 11.7226 16.7986C11.7351 16.7285 11.7676 16.6637 11.8159 16.6127C11.8642 16.5617 11.9262 16.5267 11.9939 16.5122C12.0615 16.4977 12.1319 16.5043 12.1959 16.5312C12.2599 16.5582 12.3147 16.6042 12.3532 16.6634C12.3918 16.7226 12.4124 16.7923 12.4124 16.8637Z" fill="#221F20"/>
<path d="M12.9456 16.4047V17.025C12.4838 16.8335 12.4799 16.7318 12.9456 16.4047Z" fill="#221F20"/>
<path d="M12.4394 18.1119H11.6935C11.9718 17.697 12.1109 17.695 12.4394 18.1119Z" fill="#221F20"/>
<path d="M12.457 15.6091C12.086 16.024 12.0376 16.024 11.684 15.6091H12.457Z" fill="#221F20"/>
<path d="M12.3409 16.8531L13.5235 18.4748C16.8781 23.1583 20.4414 27.9715 23.7283 32.5613L21.4655 33.6145L19.6685 30.9297C18.0317 28.4822 16.3738 26.0486 14.7776 23.5712C14.463 23.0526 14.2705 22.4651 14.2153 21.8558C14.1206 20.9083 13.9564 20.0187 13.2955 19.1191C13.2569 19.0672 11.9757 17.1144 11.9429 17.0625" fill="#221F20"/>
<path d="M11.8424 16.7437C8.46461 12.0242 3.68008 5.67908 0.368011 1.05139L2.63081 0.000183105C3.15448 0.782104 3.79023 1.73158 4.42791 2.68305C6.06462 5.13253 7.71292 7.56607 9.31871 10.0415C9.63273 10.5604 9.82526 11.1478 9.88104 11.7569C9.96799 12.6346 10.1149 13.4624 10.654 14.2942C10.6926 14.352 10.7313 14.4119 10.7757 14.4697C10.8202 14.5276 12.0163 16.4465 12.0646 16.5063" fill="#221F20"/>
<path d="M11.7786 16.8588L10.596 18.4805C7.24143 23.1641 3.67815 27.9773 0.391205 32.5671L2.65401 33.6183C3.17768 32.8364 3.81342 31.8869 4.4511 30.9354C6.08781 28.4859 7.73612 26.0524 9.34191 23.577C9.65592 23.058 9.84846 22.4707 9.90423 21.8615C9.99892 20.914 10.1632 20.0244 10.824 19.1248C10.8627 19.0729 12.1438 17.1201 12.1767 17.0683" fill="#221F20"/>
<path d="M12.2771 16.7497C15.6549 12.0302 20.4394 5.68311 23.7515 1.05741L21.4887 0.00421143L19.6916 2.68908C18.0548 5.13657 16.4065 7.5701 14.8008 10.0475C14.4865 10.5663 14.2939 11.1537 14.2384 11.763C14.1515 12.6406 14.0046 13.4664 13.4655 14.2982C13.4268 14.358 13.3863 14.4159 13.3438 14.4757C13.3012 14.5356 12.1032 16.4525 12.0549 16.5123" fill="#221F20"/>
<path d="M8.86662 16.5726C8.88981 17.9829 8.68188 19.4217 8.70314 20.8658L1.02972 20.9377C1.24615 20.2515 1.44518 19.6172 1.64808 18.9848C1.7387 18.775 1.80925 18.5566 1.85872 18.3326C1.90896 17.8898 2.19495 17.7701 2.57369 17.7082C3.66741 17.5287 4.98838 17.2668 6.08789 17.0753C6.98451 16.9097 7.88884 16.7442 8.86662 16.5726Z" fill="#221F20"/>
<path d="M2.29778 18.0692C1.94029 18.0692 1.91131 18.3425 1.82821 18.6018C1.63498 19.26 1.39923 19.9103 1.1828 20.5606C1.1828 20.5606 1.14222 20.5486 1.14222 20.5366C1.07845 19.3997 1.00116 18.2647 0.970245 17.1277C0.995427 16.8648 1.08231 16.6121 1.22338 16.3917C1.37024 16.1124 1.57314 16.1064 1.76444 16.3597C2.12592 16.8501 2.31411 17.4533 2.29778 18.0692Z" fill="#221F20"/>
<path d="M4.99016 17.3847C4.96891 17.1134 4.94765 16.9059 4.93799 16.6985C4.9206 16.3175 5.05006 16.146 5.4288 16.0801C5.89837 15.9984 6.3718 15.9226 6.84523 15.8627C7.27228 15.8089 7.42494 15.9465 7.47324 16.3754C7.49366 16.5072 7.50143 16.6408 7.49643 16.7743C7.48908 16.8134 7.47255 16.85 7.44829 16.8809C7.42403 16.9119 7.3928 16.9362 7.35731 16.9518C6.5863 17.0994 5.81335 17.2351 4.99016 17.3847Z" fill="#221F20"/>
<path d="M4.21408 17.5117L2.83244 17.7411C2.80346 17.3282 2.76094 16.7317 2.74934 16.3747C2.74466 16.2257 2.76293 16.0769 2.80345 15.9339C2.86862 15.6975 2.94999 15.4662 3.04693 15.2417C3.19379 14.9425 3.43341 14.9425 3.62664 15.2178C3.94392 15.6772 4.12517 16.2219 4.14838 16.7856C4.17544 17.013 4.19282 17.2364 4.21408 17.5117Z" fill="#221F20"/>
<path d="M14.8635 16.231C14.8403 17.6433 15.0054 19.0443 14.9822 20.4885L22.6575 20.5603C22.4411 19.8741 22.242 19.2418 22.0391 18.6095C21.9485 18.399 21.878 18.1799 21.8285 17.9552C21.7783 17.5124 21.4923 17.3947 21.1136 17.3309C20.0198 17.1514 18.9281 16.9599 17.8285 16.7664C16.9319 16.6068 15.8413 16.4085 14.8635 16.231Z" fill="#221F20"/>
<path d="M21.33 17.8871C21.6855 17.8871 21.7164 18.1603 21.7995 18.4197C21.9928 19.0779 22.2285 19.7282 22.4449 20.3804C22.4449 20.3804 22.4855 20.3665 22.4855 20.3545C22.5493 19.2195 22.6266 18.0826 22.6575 16.9456C22.6323 16.6826 22.5454 16.43 22.4044 16.2095C22.2575 15.9323 22.0546 15.9243 21.8633 16.1776C21.5021 16.6681 21.3139 17.2712 21.33 17.8871Z" fill="#221F20"/>
<path d="M18.8884 17.1439C18.9097 16.8726 18.9309 16.6672 18.9406 16.4597C18.958 16.0768 18.8285 15.9072 18.4498 15.8394C17.9783 15.7576 17.5068 15.6818 17.0334 15.622C16.6063 15.5681 16.4536 15.7077 16.4053 16.1366C16.3837 16.2683 16.376 16.4021 16.3822 16.5355C16.3898 16.5745 16.4062 16.611 16.43 16.6422C16.4538 16.6734 16.4844 16.6983 16.5193 16.7151C17.2904 16.8587 18.0652 16.9963 18.8884 17.1439Z" fill="#221F20"/>
<path d="M19.5557 17.3096L20.9373 17.539C20.9663 17.1281 21.0088 16.5316 21.0204 16.1726C21.0251 16.0243 21.0068 15.8761 20.9663 15.7338C20.9012 15.4967 20.8198 15.2647 20.7228 15.0396C20.574 14.7404 20.3363 14.7404 20.1431 15.0177C19.8258 15.4763 19.6445 16.0204 19.6214 16.5835C19.5943 16.8109 19.5769 17.0403 19.5557 17.3096Z" fill="#221F20"/>
<path d="M15.3652 17.1829C15.3652 15.6633 15.3652 14.1438 15.3652 12.6242C15.3652 12.3364 15.4483 12.265 15.7517 12.2851V17.2989L15.9565 17.3502C15.9565 17.2811 15.9565 17.2275 15.9565 17.1762V11.8388C15.9631 11.7794 15.9551 11.7191 15.9333 11.6647C15.9166 11.6418 15.8954 11.6238 15.8714 11.612C15.8475 11.6003 15.8216 11.5952 15.7956 11.5971C15.7697 11.5991 15.7445 11.608 15.7221 11.6233C15.6997 11.6385 15.6807 11.6596 15.6667 11.6848C15.0483 12.6503 14.4312 13.6172 13.8155 14.5856C13.7797 14.6526 13.7616 14.7301 13.7633 14.8087C13.7633 15.5339 13.7633 17.9438 13.7633 18.6712C13.7633 18.7448 15.3285 21.1012 15.3285 21.1012C15.3285 21.1012 15.3652 17.2565 15.3652 17.1829Z" fill="#221F20"/>
<rect x="8.26395" y="10.7865" width="0.70168" height="9.33793" fill="#221F20"/>
<rect x="15.2573" y="10.9398" width="0.70168" height="9.33793" fill="#221F20"/>
<rect x="11.1094" y="8.5517" width="1.92142" height="3.55842" fill="#221F20"/>
</mask>
<g mask="url(#mask0_338_376)">
<path d="M12 -1.99982L29.3205 8.00018V28.0002L12 38.0002L-5.32051 28.0002V8.00018L12 -1.99982Z" fill="black"/>
</g>
</svg>
